<mxfile host="app.diagrams.net" agent="Mozilla/5.0 (Windows NT 10.0; Win64; x64) AppleWebKit/537.36 (KHTML, like Gecko) Chrome/138.0.0.0 Safari/537.36" version="27.2.0">
  <diagram name="Page-1" id="a69ojggOQrLxw5PIlHlf">
    <mxGraphModel dx="423" dy="750" grid="1" gridSize="10" guides="1" tooltips="1" connect="1" arrows="1" fold="1" page="1" pageScale="1" pageWidth="1100" pageHeight="850" math="0" shadow="0">
      <root>
        <mxCell id="0" />
        <mxCell id="1" parent="0" />
        <mxCell id="KpohPWfmBzLDAnukmlFw-1" value="&lt;b&gt;ADMIN&lt;/b&gt;" style="shape=umlActor;verticalLabelPosition=bottom;verticalAlign=top;html=1;outlineConnect=0;" vertex="1" parent="1">
          <mxGeometry x="330" y="170" width="30" height="60" as="geometry" />
        </mxCell>
        <mxCell id="KpohPWfmBzLDAnukmlFw-2" value="&lt;b&gt;PIC&lt;/b&gt;" style="shape=umlActor;verticalLabelPosition=bottom;verticalAlign=top;html=1;outlineConnect=0;" vertex="1" parent="1">
          <mxGeometry x="330" y="260" width="30" height="60" as="geometry" />
        </mxCell>
        <mxCell id="KpohPWfmBzLDAnukmlFw-3" value="&lt;b&gt;USER&lt;/b&gt;" style="shape=umlActor;verticalLabelPosition=bottom;verticalAlign=top;html=1;outlineConnect=0;" vertex="1" parent="1">
          <mxGeometry x="330" y="370" width="30" height="60" as="geometry" />
        </mxCell>
        <mxCell id="KpohPWfmBzLDAnukmlFw-4" value="&lt;font style=&quot;font-size: 10px;&quot;&gt;View Programs&lt;/font&gt;" style="ellipse;whiteSpace=wrap;html=1;" vertex="1" parent="1">
          <mxGeometry x="400" y="440" width="100" height="50" as="geometry" />
        </mxCell>
        <mxCell id="KpohPWfmBzLDAnukmlFw-5" value="&lt;font style=&quot;font-size: 10px;&quot;&gt;Contribute&lt;/font&gt;" style="ellipse;whiteSpace=wrap;html=1;" vertex="1" parent="1">
          <mxGeometry x="400" y="510" width="100" height="50" as="geometry" />
        </mxCell>
        <mxCell id="KpohPWfmBzLDAnukmlFw-6" value="&lt;font style=&quot;font-size: 10px;&quot;&gt;View Donation&lt;/font&gt;&lt;div&gt;&lt;font style=&quot;font-size: 10px;&quot;&gt;History&lt;/font&gt;&lt;/div&gt;" style="ellipse;whiteSpace=wrap;html=1;" vertex="1" parent="1">
          <mxGeometry x="400" y="580" width="100" height="50" as="geometry" />
        </mxCell>
        <mxCell id="KpohPWfmBzLDAnukmlFw-7" value="&lt;font style=&quot;font-size: 10px;&quot;&gt;Login&lt;/font&gt;" style="ellipse;whiteSpace=wrap;html=1;" vertex="1" parent="1">
          <mxGeometry x="400" y="370" width="100" height="50" as="geometry" />
        </mxCell>
        <mxCell id="KpohPWfmBzLDAnukmlFw-8" value="&lt;font style=&quot;font-size: 10px;&quot;&gt;Login&lt;/font&gt;" style="ellipse;whiteSpace=wrap;html=1;" vertex="1" parent="1">
          <mxGeometry x="520" y="260" width="100" height="50" as="geometry" />
        </mxCell>
        <mxCell id="KpohPWfmBzLDAnukmlFw-9" value="&lt;font style=&quot;font-size: 10px;&quot;&gt;View Programs&lt;/font&gt;" style="ellipse;whiteSpace=wrap;html=1;" vertex="1" parent="1">
          <mxGeometry x="520" y="330" width="100" height="50" as="geometry" />
        </mxCell>
        <mxCell id="KpohPWfmBzLDAnukmlFw-10" value="&lt;font style=&quot;font-size: 10px;&quot;&gt;Withdraw Fund&lt;/font&gt;" style="ellipse;whiteSpace=wrap;html=1;" vertex="1" parent="1">
          <mxGeometry x="520" y="400" width="100" height="50" as="geometry" />
        </mxCell>
        <mxCell id="KpohPWfmBzLDAnukmlFw-11" value="&lt;font style=&quot;font-size: 10px;&quot;&gt;View Withdrawal&lt;/font&gt;&lt;div&gt;&lt;font style=&quot;font-size: 10px;&quot;&gt;History&lt;/font&gt;&lt;/div&gt;" style="ellipse;whiteSpace=wrap;html=1;" vertex="1" parent="1">
          <mxGeometry x="520" y="470" width="100" height="50" as="geometry" />
        </mxCell>
        <mxCell id="KpohPWfmBzLDAnukmlFw-12" value="&lt;font style=&quot;font-size: 10px;&quot;&gt;Login&lt;/font&gt;" style="ellipse;whiteSpace=wrap;html=1;" vertex="1" parent="1">
          <mxGeometry x="640" y="170" width="100" height="50" as="geometry" />
        </mxCell>
        <mxCell id="KpohPWfmBzLDAnukmlFw-13" value="&lt;font style=&quot;font-size: 10px;&quot;&gt;Create Program&lt;/font&gt;" style="ellipse;whiteSpace=wrap;html=1;" vertex="1" parent="1">
          <mxGeometry x="640" y="230" width="100" height="50" as="geometry" />
        </mxCell>
        <mxCell id="KpohPWfmBzLDAnukmlFw-14" value="&lt;font style=&quot;font-size: 10px;&quot;&gt;Allocated Fund&lt;/font&gt;" style="ellipse;whiteSpace=wrap;html=1;" vertex="1" parent="1">
          <mxGeometry x="640" y="300" width="100" height="50" as="geometry" />
        </mxCell>
        <mxCell id="KpohPWfmBzLDAnukmlFw-15" value="&lt;font style=&quot;font-size: 10px;&quot;&gt;Update Program&lt;/font&gt;" style="ellipse;whiteSpace=wrap;html=1;" vertex="1" parent="1">
          <mxGeometry x="640" y="370" width="100" height="50" as="geometry" />
        </mxCell>
        <mxCell id="KpohPWfmBzLDAnukmlFw-16" value="&lt;font style=&quot;font-size: 10px;&quot;&gt;Deactive Program&lt;/font&gt;" style="ellipse;whiteSpace=wrap;html=1;" vertex="1" parent="1">
          <mxGeometry x="640" y="440" width="100" height="50" as="geometry" />
        </mxCell>
        <mxCell id="KpohPWfmBzLDAnukmlFw-17" value="&lt;font style=&quot;font-size: 10px;&quot;&gt;View Withdrawal&lt;/font&gt;&lt;div&gt;&lt;font style=&quot;font-size: 10px;&quot;&gt;History&lt;/font&gt;&lt;/div&gt;" style="ellipse;whiteSpace=wrap;html=1;" vertex="1" parent="1">
          <mxGeometry x="640" y="570" width="100" height="50" as="geometry" />
        </mxCell>
        <mxCell id="KpohPWfmBzLDAnukmlFw-18" value="&lt;font style=&quot;font-size: 10px;&quot;&gt;View Programs&lt;/font&gt;" style="ellipse;whiteSpace=wrap;html=1;" vertex="1" parent="1">
          <mxGeometry x="640" y="510" width="100" height="50" as="geometry" />
        </mxCell>
        <mxCell id="KpohPWfmBzLDAnukmlFw-19" value="&lt;font style=&quot;font-size: 10px;&quot;&gt;Contribute&lt;/font&gt;" style="ellipse;whiteSpace=wrap;html=1;" vertex="1" parent="1">
          <mxGeometry x="520" y="540" width="100" height="50" as="geometry" />
        </mxCell>
        <mxCell id="KpohPWfmBzLDAnukmlFw-20" value="&lt;font style=&quot;font-size: 10px;&quot;&gt;Contribute&lt;/font&gt;" style="ellipse;whiteSpace=wrap;html=1;" vertex="1" parent="1">
          <mxGeometry x="640" y="640" width="100" height="50" as="geometry" />
        </mxCell>
        <mxCell id="KpohPWfmBzLDAnukmlFw-25" value="" style="rounded=0;whiteSpace=wrap;html=1;rotation=90;" vertex="1" parent="1">
          <mxGeometry x="780" y="312.51" width="670" height="240" as="geometry" />
        </mxCell>
        <mxCell id="KpohPWfmBzLDAnukmlFw-26" value="&lt;font style=&quot;font-size: 10px;&quot;&gt;Login&lt;/font&gt;" style="ellipse;whiteSpace=wrap;html=1;" vertex="1" parent="1">
          <mxGeometry x="1064.99" y="155" width="100" height="50" as="geometry" />
        </mxCell>
        <mxCell id="KpohPWfmBzLDAnukmlFw-27" value="&lt;font style=&quot;font-size: 10px;&quot;&gt;Create Program&lt;/font&gt;" style="ellipse;whiteSpace=wrap;html=1;" vertex="1" parent="1">
          <mxGeometry x="1064.99" y="215" width="100" height="50" as="geometry" />
        </mxCell>
        <mxCell id="KpohPWfmBzLDAnukmlFw-28" value="&lt;font style=&quot;font-size: 10px;&quot;&gt;View Programs&lt;/font&gt;" style="ellipse;whiteSpace=wrap;html=1;" vertex="1" parent="1">
          <mxGeometry x="1064.99" y="275" width="100" height="50" as="geometry" />
        </mxCell>
        <mxCell id="KpohPWfmBzLDAnukmlFw-29" value="&lt;font style=&quot;font-size: 10px;&quot;&gt;Contribute&lt;/font&gt;" style="ellipse;whiteSpace=wrap;html=1;" vertex="1" parent="1">
          <mxGeometry x="1065" y="335" width="100" height="50" as="geometry" />
        </mxCell>
        <mxCell id="KpohPWfmBzLDAnukmlFw-30" value="&lt;font style=&quot;font-size: 10px;&quot;&gt;Allocated Fund&lt;/font&gt;&lt;div&gt;&lt;span style=&quot;font-size: 10px;&quot;&gt;To PIC&lt;/span&gt;&lt;/div&gt;" style="ellipse;whiteSpace=wrap;html=1;" vertex="1" parent="1">
          <mxGeometry x="1064.99" y="395" width="100" height="50" as="geometry" />
        </mxCell>
        <mxCell id="KpohPWfmBzLDAnukmlFw-33" value="&lt;font style=&quot;font-size: 10px;&quot;&gt;Update Program&lt;/font&gt;" style="ellipse;whiteSpace=wrap;html=1;" vertex="1" parent="1">
          <mxGeometry x="1065" y="455" width="100" height="50" as="geometry" />
        </mxCell>
        <mxCell id="KpohPWfmBzLDAnukmlFw-34" value="&lt;font style=&quot;font-size: 10px;&quot;&gt;Withdraw Assign Program Fund&lt;/font&gt;" style="ellipse;whiteSpace=wrap;html=1;" vertex="1" parent="1">
          <mxGeometry x="1064.99" y="515" width="100" height="50" as="geometry" />
        </mxCell>
        <mxCell id="KpohPWfmBzLDAnukmlFw-36" value="&lt;font style=&quot;font-size: 10px;&quot;&gt;View Withdrawal&lt;/font&gt;&lt;div&gt;&lt;font style=&quot;font-size: 10px;&quot;&gt;History&lt;/font&gt;&lt;/div&gt;" style="ellipse;whiteSpace=wrap;html=1;" vertex="1" parent="1">
          <mxGeometry x="1064.99" y="575" width="100" height="50" as="geometry" />
        </mxCell>
        <mxCell id="KpohPWfmBzLDAnukmlFw-37" value="&lt;font style=&quot;font-size: 10px;&quot;&gt;Deactive Program&lt;/font&gt;" style="ellipse;whiteSpace=wrap;html=1;" vertex="1" parent="1">
          <mxGeometry x="1064.99" y="635" width="100" height="50" as="geometry" />
        </mxCell>
        <mxCell id="KpohPWfmBzLDAnukmlFw-38" value="&lt;font style=&quot;font-size: 10px;&quot;&gt;Logout&lt;/font&gt;" style="ellipse;whiteSpace=wrap;html=1;" vertex="1" parent="1">
          <mxGeometry x="1064.99" y="695" width="100" height="50" as="geometry" />
        </mxCell>
        <mxCell id="KpohPWfmBzLDAnukmlFw-39" value="&lt;b&gt;&lt;font style=&quot;font-size: 10px;&quot;&gt;Fundraiser System&lt;/font&gt;&lt;/b&gt;" style="text;html=1;align=center;verticalAlign=middle;whiteSpace=wrap;rounded=0;" vertex="1" parent="1">
          <mxGeometry x="1004.99" y="105" width="60" height="30" as="geometry" />
        </mxCell>
        <mxCell id="KpohPWfmBzLDAnukmlFw-48" style="rounded=0;orthogonalLoop=1;jettySize=auto;html=1;entryX=1;entryY=0.5;entryDx=0;entryDy=0;" edge="1" parent="1" target="KpohPWfmBzLDAnukmlFw-26">
          <mxGeometry relative="1" as="geometry">
            <mxPoint x="1310" y="424" as="sourcePoint" />
          </mxGeometry>
        </mxCell>
        <mxCell id="KpohPWfmBzLDAnukmlFw-49" style="rounded=0;orthogonalLoop=1;jettySize=auto;html=1;entryX=1;entryY=0.5;entryDx=0;entryDy=0;" edge="1" parent="1" target="KpohPWfmBzLDAnukmlFw-27">
          <mxGeometry relative="1" as="geometry">
            <mxPoint x="1310" y="424" as="sourcePoint" />
          </mxGeometry>
        </mxCell>
        <mxCell id="KpohPWfmBzLDAnukmlFw-51" style="rounded=0;orthogonalLoop=1;jettySize=auto;html=1;entryX=1;entryY=0.5;entryDx=0;entryDy=0;" edge="1" parent="1" target="KpohPWfmBzLDAnukmlFw-29">
          <mxGeometry relative="1" as="geometry">
            <mxPoint x="1310" y="424" as="sourcePoint" />
          </mxGeometry>
        </mxCell>
        <mxCell id="KpohPWfmBzLDAnukmlFw-52" style="rounded=0;orthogonalLoop=1;jettySize=auto;html=1;" edge="1" parent="1" source="KpohPWfmBzLDAnukmlFw-41" target="KpohPWfmBzLDAnukmlFw-30">
          <mxGeometry relative="1" as="geometry" />
        </mxCell>
        <mxCell id="KpohPWfmBzLDAnukmlFw-53" style="rounded=0;orthogonalLoop=1;jettySize=auto;html=1;entryX=1;entryY=0.5;entryDx=0;entryDy=0;" edge="1" parent="1" target="KpohPWfmBzLDAnukmlFw-33">
          <mxGeometry relative="1" as="geometry">
            <mxPoint x="1310" y="424" as="sourcePoint" />
          </mxGeometry>
        </mxCell>
        <mxCell id="KpohPWfmBzLDAnukmlFw-54" style="rounded=0;orthogonalLoop=1;jettySize=auto;html=1;entryX=1;entryY=0.5;entryDx=0;entryDy=0;" edge="1" parent="1" target="KpohPWfmBzLDAnukmlFw-36">
          <mxGeometry relative="1" as="geometry">
            <mxPoint x="1310" y="424" as="sourcePoint" />
          </mxGeometry>
        </mxCell>
        <mxCell id="KpohPWfmBzLDAnukmlFw-55" style="rounded=0;orthogonalLoop=1;jettySize=auto;html=1;entryX=1;entryY=0.5;entryDx=0;entryDy=0;" edge="1" parent="1" target="KpohPWfmBzLDAnukmlFw-37">
          <mxGeometry relative="1" as="geometry">
            <mxPoint x="1310" y="424" as="sourcePoint" />
          </mxGeometry>
        </mxCell>
        <mxCell id="KpohPWfmBzLDAnukmlFw-56" style="rounded=0;orthogonalLoop=1;jettySize=auto;html=1;entryX=1;entryY=0.5;entryDx=0;entryDy=0;" edge="1" parent="1" target="KpohPWfmBzLDAnukmlFw-38">
          <mxGeometry relative="1" as="geometry">
            <mxPoint x="1310" y="424" as="sourcePoint" />
          </mxGeometry>
        </mxCell>
        <mxCell id="KpohPWfmBzLDAnukmlFw-57" style="rounded=0;orthogonalLoop=1;jettySize=auto;html=1;entryX=1;entryY=0.5;entryDx=0;entryDy=0;" edge="1" parent="1" target="KpohPWfmBzLDAnukmlFw-28">
          <mxGeometry relative="1" as="geometry">
            <mxPoint x="1310" y="424" as="sourcePoint" />
          </mxGeometry>
        </mxCell>
        <mxCell id="KpohPWfmBzLDAnukmlFw-41" value="&lt;b&gt;ADMIN&lt;/b&gt;" style="shape=umlActor;verticalLabelPosition=bottom;verticalAlign=top;html=1;outlineConnect=0;" vertex="1" parent="1">
          <mxGeometry x="1310" y="370" width="55" height="107.5" as="geometry" />
        </mxCell>
        <mxCell id="KpohPWfmBzLDAnukmlFw-63" style="rounded=0;orthogonalLoop=1;jettySize=auto;html=1;entryX=0;entryY=0.5;entryDx=0;entryDy=0;" edge="1" parent="1" target="KpohPWfmBzLDAnukmlFw-26">
          <mxGeometry relative="1" as="geometry">
            <mxPoint x="900" y="580" as="sourcePoint" />
          </mxGeometry>
        </mxCell>
        <mxCell id="KpohPWfmBzLDAnukmlFw-64" style="rounded=0;orthogonalLoop=1;jettySize=auto;html=1;entryX=0;entryY=0.5;entryDx=0;entryDy=0;" edge="1" parent="1" target="KpohPWfmBzLDAnukmlFw-28">
          <mxGeometry relative="1" as="geometry">
            <mxPoint x="900" y="581" as="sourcePoint" />
          </mxGeometry>
        </mxCell>
        <mxCell id="KpohPWfmBzLDAnukmlFw-65" style="rounded=0;orthogonalLoop=1;jettySize=auto;html=1;entryX=0;entryY=0.543;entryDx=0;entryDy=0;entryPerimeter=0;" edge="1" parent="1" target="KpohPWfmBzLDAnukmlFw-29">
          <mxGeometry relative="1" as="geometry">
            <mxPoint x="1060" y="360" as="targetPoint" />
            <mxPoint x="900" y="580" as="sourcePoint" />
          </mxGeometry>
        </mxCell>
        <mxCell id="KpohPWfmBzLDAnukmlFw-66" style="rounded=0;orthogonalLoop=1;jettySize=auto;html=1;" edge="1" parent="1" target="KpohPWfmBzLDAnukmlFw-34">
          <mxGeometry relative="1" as="geometry">
            <mxPoint x="900" y="580" as="sourcePoint" />
          </mxGeometry>
        </mxCell>
        <mxCell id="KpohPWfmBzLDAnukmlFw-67" style="rounded=0;orthogonalLoop=1;jettySize=auto;html=1;entryX=0;entryY=0.5;entryDx=0;entryDy=0;" edge="1" parent="1" target="KpohPWfmBzLDAnukmlFw-36">
          <mxGeometry relative="1" as="geometry">
            <mxPoint x="900" y="580" as="sourcePoint" />
          </mxGeometry>
        </mxCell>
        <mxCell id="KpohPWfmBzLDAnukmlFw-68" style="rounded=0;orthogonalLoop=1;jettySize=auto;html=1;entryX=0;entryY=0.5;entryDx=0;entryDy=0;" edge="1" parent="1" target="KpohPWfmBzLDAnukmlFw-38">
          <mxGeometry relative="1" as="geometry">
            <mxPoint x="900" y="580" as="sourcePoint" />
          </mxGeometry>
        </mxCell>
        <mxCell id="KpohPWfmBzLDAnukmlFw-42" value="&lt;b&gt;PIC&lt;/b&gt;" style="shape=umlActor;verticalLabelPosition=bottom;verticalAlign=top;html=1;outlineConnect=0;" vertex="1" parent="1">
          <mxGeometry x="840" y="527.5" width="55" height="107.5" as="geometry" />
        </mxCell>
        <mxCell id="KpohPWfmBzLDAnukmlFw-58" style="rounded=0;orthogonalLoop=1;jettySize=auto;html=1;entryX=0;entryY=0.5;entryDx=0;entryDy=0;" edge="1" parent="1" target="KpohPWfmBzLDAnukmlFw-26">
          <mxGeometry relative="1" as="geometry">
            <mxPoint x="900" y="250" as="sourcePoint" />
          </mxGeometry>
        </mxCell>
        <mxCell id="KpohPWfmBzLDAnukmlFw-59" style="rounded=0;orthogonalLoop=1;jettySize=auto;html=1;entryX=0;entryY=0.5;entryDx=0;entryDy=0;" edge="1" parent="1" target="KpohPWfmBzLDAnukmlFw-28">
          <mxGeometry relative="1" as="geometry">
            <mxPoint x="900" y="250" as="sourcePoint" />
          </mxGeometry>
        </mxCell>
        <mxCell id="KpohPWfmBzLDAnukmlFw-60" style="rounded=0;orthogonalLoop=1;jettySize=auto;html=1;entryX=0;entryY=0.5;entryDx=0;entryDy=0;" edge="1" parent="1" target="KpohPWfmBzLDAnukmlFw-29">
          <mxGeometry relative="1" as="geometry">
            <mxPoint x="900" y="250" as="sourcePoint" />
          </mxGeometry>
        </mxCell>
        <mxCell id="KpohPWfmBzLDAnukmlFw-61" style="rounded=0;orthogonalLoop=1;jettySize=auto;html=1;entryX=0;entryY=0.5;entryDx=0;entryDy=0;" edge="1" parent="1" target="KpohPWfmBzLDAnukmlFw-36">
          <mxGeometry relative="1" as="geometry">
            <mxPoint x="900" y="250" as="sourcePoint" />
          </mxGeometry>
        </mxCell>
        <mxCell id="KpohPWfmBzLDAnukmlFw-62" style="rounded=0;orthogonalLoop=1;jettySize=auto;html=1;entryX=0;entryY=0.5;entryDx=0;entryDy=0;" edge="1" parent="1" target="KpohPWfmBzLDAnukmlFw-38">
          <mxGeometry relative="1" as="geometry">
            <mxPoint x="900" y="250" as="sourcePoint" />
          </mxGeometry>
        </mxCell>
        <mxCell id="KpohPWfmBzLDAnukmlFw-43" value="&lt;b&gt;USER&lt;/b&gt;" style="shape=umlActor;verticalLabelPosition=bottom;verticalAlign=top;html=1;outlineConnect=0;" vertex="1" parent="1">
          <mxGeometry x="840" y="190" width="55" height="110" as="geometry" />
        </mxCell>
      </root>
    </mxGraphModel>
  </diagram>
</mxfile>
